HIERARCHY
ROOT Hips
{
	OFFSET 0.000000 0.000000 0.000000
	CHANNELS 6 Xposition Yposition Zposition Xrotation Yrotation Zrotation
	JOINT LeftUpLeg_virtual
	{
		OFFSET 0.000000 0.000000 0.000000
		CHANNELS 3 Xrotation Yrotation Zrotation
		JOINT LeftUpLeg
		{
			OFFSET 13.026900 -6.336304 -1.092800
			CHANNELS 3 Xrotation Yrotation Zrotation
			JOINT LeftLeg
			{
				OFFSET 0.524474 -46.096886 9.782700
				CHANNELS 3 Xrotation Yrotation Zrotation
				JOINT LeftFoot
				{
					OFFSET -0.524474 -53.427422 -12.948200
					CHANNELS 3 Xrotation Yrotation Zrotation
					JOINT LeftToeBase
					{
						OFFSET 0.192200 -14.009700 16.364100
						CHANNELS 3 Xrotation Yrotation Zrotation
						JOINT LeftToe_End
						{
							OFFSET -1.784700 -0.561700 9.474800
							CHANNELS 3 Xrotation Yrotation Zrotation
							End Site
							{
								OFFSET 0 0 0
							}
						}
					}
				}
			}
		}
	}
	JOINT RightUpLeg_virtual
	{
		OFFSET 0.000000 0.000000 0.000000
		CHANNELS 3 Xrotation Yrotation Zrotation
		JOINT RightUpLeg
		{
			OFFSET -12.883000 -6.336304 -1.092800
			CHANNELS 3 Xrotation Yrotation Zrotation
			JOINT RightLeg
			{
				OFFSET -0.524587 -46.096825 9.782800
				CHANNELS 3 Xrotation Yrotation Zrotation
				JOINT RightFoot
				{
					OFFSET 0.524587 -53.427383 -12.948300
					CHANNELS 3 Xrotation Yrotation Zrotation
					JOINT RightToeBase
					{
						OFFSET -0.192200 -14.009700 16.364100
						CHANNELS 3 Xrotation Yrotation Zrotation
						JOINT RightToe_End
						{
							OFFSET 1.784700 -0.561700 9.474800
							CHANNELS 3 Xrotation Yrotation Zrotation
							End Site
							{
								OFFSET 0 0 0
							}
						}
					}
				}
			}
		}
	}
	JOINT Spine_virtual
	{
		OFFSET 0.000000 0.000000 0.000000
		CHANNELS 3 Xrotation Yrotation Zrotation
		JOINT Spine
		{
			OFFSET 0.072000 7.257294 -0.789700
			CHANNELS 3 Xrotation Yrotation Zrotation
			JOINT Spine1
			{
				OFFSET 0.000000 12.508769 -0.658067
				CHANNELS 3 Xrotation Yrotation Zrotation
				JOINT Spine1_split
				{
					OFFSET 0.000000 12.508769 -0.658067
					CHANNELS 3 Xrotation Yrotation Zrotation
					JOINT Spine2
					{
						OFFSET 0.000000 12.508769 -0.658067
						CHANNELS 3 Xrotation Yrotation Zrotation
						JOINT Neck_virtual
						{
							OFFSET 0.000000 0.000000 0.000000
							CHANNELS 3 Xrotation Yrotation Zrotation
							JOINT Neck
							{
								OFFSET 0.000000 14.033295 7.520400
								CHANNELS 3 Xrotation Yrotation Zrotation
								JOINT Head
								{
									OFFSET 0.000000 8.198502 5.703100
									CHANNELS 3 Xrotation Yrotation Zrotation
									JOINT HeadTop_End
									{
										OFFSET 0.000000 17.760803 13.332701
										CHANNELS 3 Xrotation Yrotation Zrotation
										End Site
										{
											OFFSET 0 0 0
										}
									}
								}
							}
						}
						JOINT LeftShoulder_virtual
						{
							OFFSET 0.000000 0.000000 0.000000
							CHANNELS 3 Xrotation Yrotation Zrotation
							JOINT LeftShoulder
							{
								OFFSET 6.292450 5.785301 -0.669000
								CHANNELS 3 Xrotation Yrotation Zrotation
								JOINT LeftShoulder_split
								{
									OFFSET 6.292450 5.785301 -0.669000
									CHANNELS 3 Xrotation Yrotation Zrotation
									JOINT LeftArm
									{
										OFFSET 13.907140 -6.093903 1.965100
										CHANNELS 3 Xrotation Yrotation Zrotation
										JOINT LeftForeArm
										{
											OFFSET 34.140198 0.000000 0.000000
											CHANNELS 3 Xrotation Yrotation Zrotation
											JOINT LeftHand
											{
												OFFSET 40.960209 0.000000 0.000000
												CHANNELS 3 Xrotation Yrotation Zrotation
												End Site
												{
													OFFSET 0 0 0
												}
											}
										}
									}
								}
							}
						}
						JOINT RightShoulder_virtual
						{
							OFFSET 0.000000 0.000000 0.000000
							CHANNELS 3 Xrotation Yrotation Zrotation
							JOINT RightShoulder
							{
								OFFSET -6.292450 5.785301 -0.669000
								CHANNELS 3 Xrotation Yrotation Zrotation
								JOINT RightShoulder_split
								{
									OFFSET -6.292450 5.785301 -0.669000
									CHANNELS 3 Xrotation Yrotation Zrotation
									JOINT RightArm
									{
										OFFSET -13.907140 -6.093903 1.965100
										CHANNELS 3 Xrotation Yrotation Zrotation
										JOINT RightForeArm
										{
											OFFSET -34.140198 0.000000 0.000000
											CHANNELS 3 Xrotation Yrotation Zrotation
											JOINT RightHand
											{
												OFFSET -40.960209 0.000000 0.000000
												CHANNELS 3 Xrotation Yrotation Zrotation
												End Site
												{
													OFFSET 0 0 0
												}
											}
										}
									}
								}
							}
						}
					}
				}
			}
		}
	}
}
MOTION
Frames: 10
Frame Time: 0.03333333
7.331181 34.673859 -32.907650 0.000000 0.000000 0.000000 39.033561 28.149050 -4.171243 -69.224090 -42.903813 3.591796 112.231087 -7.631063 -5.246769 17.205805 15.950242 -31.526876 -56.157593 -4.452477 -13.233296 0.000000 0.000000 0.000000 40.760844 20.482855 -2.271559 -78.637648 10.761028 -30.415693 123.859183 7.460628 -7.627341 21.483192 -16.612511 46.027562 -33.597342 10.932372 -8.052410 0.000000 0.000000 0.000000 46.676458 24.506842 -5.273947 27.066409 5.524688 0.339118 11.259222 1.883040 -1.435365 0.056875 -0.594359 0.146469 0.000000 0.000000 0.000000 13.363346 4.227746 -0.265319 2.800167 13.476892 15.361456 -41.853299 -47.476727 -35.718085 0.000000 0.000000 0.000000 10.039218 2.063593 -2.551990 3.209309 -39.334230 11.672459 3.663541 -0.111936 -2.743151 -55.035912 -34.446437 -66.291548 -22.094998 -61.727951 -13.349456 0.000000 0.000000 0.000000 11.537822 2.504640 0.282082 -1.110994 8.025342 -4.432767 0.480615 0.962198 -0.169166 -29.031098 28.532195 53.246932 -81.214474 62.184856 70.112807 0.000000 0.000000 0.000000 
6.889879 34.262009 -33.610424 0.000000 0.000000 0.000000 37.224026 27.152633 -3.627534 -68.026908 -43.456713 4.360270 113.266721 -7.828653 -5.380688 17.209239 16.012909 -31.920493 -56.750485 -4.389932 -13.215432 0.000000 0.000000 0.000000 39.018084 19.790393 -1.917616 -79.202819 11.729418 -28.843793 124.706140 7.350773 -7.452944 21.795175 -16.401229 46.364929 -33.023056 10.893096 -8.842850 0.000000 0.000000 0.000000 44.605223 23.493517 -4.579112 26.677957 5.081201 -0.603342 12.108384 1.679345 -1.577975 0.086240 -0.604335 0.164860 0.000000 0.000000 0.000000 14.181133 4.061544 -0.464869 3.154028 13.578583 15.057751 -36.598206 -46.787773 -31.715557 0.000000 0.000000 0.000000 10.928868 1.865946 -2.780562 3.049781 -36.973921 10.799114 3.772626 -0.942606 -2.368329 -56.676425 -35.642178 -65.198022 -20.807336 -60.755694 -12.888155 0.000000 0.000000 0.000000 12.372963 2.314053 0.140668 -0.887824 7.840821 -3.953794 1.324894 1.880938 -0.258579 -32.035653 29.001615 55.545677 -79.953511 61.670980 68.799539 0.000000 0.000000 0.000000 
6.400270 34.073742 -34.241360 0.000000 0.000000 0.000000 35.384034 26.076503 -3.112412 -66.179622 -43.837705 5.436232 114.192908 -7.931637 -5.614275 17.219460 16.242352 -32.133004 -57.071971 -4.367211 -13.210749 0.000000 0.000000 0.000000 37.243389 19.030959 -1.568023 -79.630286 12.550977 -26.994892 125.269166 7.211979 -7.239447 22.248276 -16.241703 46.651196 -32.381244 10.845009 -9.691057 0.000000 0.000000 0.000000 42.392751 22.316120 -3.852627 26.401635 4.389936 -1.604593 12.693747 1.549582 -1.617227 0.098354 -0.649386 0.178698 0.000000 0.000000 0.000000 14.840789 3.979601 -0.578060 3.135354 13.735127 14.363915 -31.404520 -45.319671 -27.961124 0.000000 0.000000 0.000000 11.633004 1.761532 -2.858426 2.756971 -34.307217 9.642679 3.973746 -1.357042 -1.917763 -56.768356 -36.369480 -63.697852 -19.324509 -61.364318 -12.504626 0.000000 0.000000 0.000000 12.991319 2.140926 0.059397 -0.610714 7.617031 -3.560695 1.873504 2.602127 -0.065412 -35.299493 30.202769 59.027034 -77.530857 61.075599 66.705963 0.000000 0.000000 0.000000 
5.882477 34.094376 -34.740444 0.000000 0.000000 0.000000 33.599278 24.972930 -2.643364 -63.774214 -43.960313 6.756547 114.869780 -7.863459 -5.981444 16.965213 16.800809 -32.024947 -56.739543 -4.382726 -13.279655 0.000000 0.000000 0.000000 35.505888 18.207288 -1.237761 -79.904471 13.210845 -25.014709 125.494959 7.041461 -6.935094 22.950966 -16.153495 46.875178 -31.657415 10.749268 -10.487107 0.000000 0.000000 0.000000 40.178024 21.080768 -3.151902 26.247920 3.520966 -2.545443 13.004071 1.516323 -1.510805 0.118174 -0.719617 0.209079 0.000000 0.000000 0.000000 15.344968 3.983926 -0.576377 2.677388 13.904874 13.432677 -26.406912 -43.290108 -24.669004 0.000000 0.000000 0.000000 12.182367 1.762968 -2.735884 2.439880 -31.530291 8.460418 4.304608 -1.472391 -1.425605 -55.628534 -36.484036 -62.193913 -17.688544 -63.376069 -12.147807 0.000000 0.000000 0.000000 13.420975 2.031615 0.081539 -0.316315 7.260357 -3.368121 2.009465 3.087111 0.342062 -38.423434 31.773302 63.075813 -74.369087 60.436669 64.204400 0.000000 0.000000 0.000000 
5.419686 34.277473 -35.178379 0.000000 0.000000 0.000000 31.963742 23.907347 -2.251422 -61.017502 -43.756500 8.242862 115.138712 -7.662180 -6.444618 16.412871 17.539055 -31.724258 -56.025883 -4.418769 -13.377736 0.000000 0.000000 0.000000 33.900274 17.431215 -0.981193 -80.037885 13.732053 -23.081064 125.432230 6.847735 -6.543677 23.949343 -16.065387 47.134319 -31.002765 10.580457 -11.132678 0.000000 0.000000 0.000000 38.176475 19.860949 -2.563066 26.212989 2.587113 -3.307218 13.043402 1.576239 -1.298695 0.085009 -0.779917 0.261393 0.000000 0.000000 0.000000 15.664291 4.079559 -0.500696 1.739494 14.030505 12.479411 -21.563737 -41.090872 -21.846005 0.000000 0.000000 0.000000 12.609093 1.869819 -2.465356 2.153099 -28.894292 7.372195 4.725091 -1.377449 -0.769464 -53.919211 -35.768338 -61.091664 -15.579245 -65.945497 -11.381139 0.000000 0.000000 0.000000 13.680597 2.028443 0.200564 -0.034221 6.796466 -3.431844 1.785680 3.320892 1.073962 -40.933266 33.512129 66.890542 -70.225328 59.675745 60.919393 0.000000 0.000000 0.000000 
5.046312 34.563816 -35.523266 0.000000 0.000000 0.000000 30.511548 22.917692 -1.932313 -58.315581 -43.370735 9.638167 115.111309 -7.457201 -6.789749 15.880799 18.107043 -31.534806 -55.507329 -4.463466 -13.407875 0.000000 0.000000 0.000000 32.506421 16.753016 -0.812511 -79.991323 14.135835 -21.337456 125.184117 6.620886 -6.073333 25.091668 -16.047277 47.435725 -30.446231 10.350259 -11.602171 0.000000 0.000000 0.000000 36.444339 18.706710 -2.124802 26.318758 1.691818 -3.805467 12.797674 1.719257 -1.045338 0.066836 -0.818313 0.315516 0.000000 0.000000 0.000000 15.708971 4.253660 -0.406611 0.348553 14.111458 11.730067 -16.753875 -39.121923 -19.281812 0.000000 0.000000 0.000000 12.869558 2.046958 -2.149071 1.930893 -26.634384 6.486031 5.283375 -1.100381 -0.330551 -51.942680 -34.322073 -60.575951 -12.852505 -68.122852 -9.928777 0.000000 0.000000 0.000000 13.735341 2.130516 0.349801 0.191679 6.172889 -3.737416 1.237318 3.613899 1.859909 -42.580547 35.423011 69.998319 -64.511321 58.523608 56.151620 0.000000 0.000000 0.000000 
4.773359 34.919716 -35.764668 0.000000 0.000000 0.000000 29.277203 22.022357 -1.674484 -55.929270 -42.946320 10.785882 114.993639 -7.307467 -6.900918 15.616753 18.361285 -31.520254 -55.322572 -4.504720 -13.360687 0.000000 0.000000 0.000000 31.378634 16.144715 -0.716329 -79.724468 14.400855 -19.873264 124.832649 6.314908 -5.514353 26.068088 -16.259293 47.709575 -29.880937 10.077498 -11.938577 0.000000 0.000000 0.000000 35.029660 17.798498 -1.859341 26.613883 0.907371 -4.031907 12.262538 1.907003 -0.855762 0.031885 -0.852794 0.350495 0.000000 0.000000 0.000000 15.386745 4.473283 -0.362971 -1.401944 14.121093 11.390959 -11.998874 -37.619579 -16.838482 0.000000 0.000000 0.000000 12.896319 2.238801 -1.892625 1.772359 -24.888108 5.831525 5.433221 -0.593640 -0.413885 -49.914176 -32.283982 -60.682379 -9.703287 -69.376260 -7.867662 0.000000 0.000000 0.000000 13.514672 2.304692 0.453988 0.348363 5.339301 -4.171373 0.677640 4.208925 2.549985 -43.212114 37.425813 72.213596 -57.830160 56.880125 50.384448 0.000000 0.000000 0.000000 
4.621086 35.296753 -35.949635 0.000000 0.000000 0.000000 28.258550 21.244801 -1.492478 -53.881136 -42.461975 11.744042 114.825479 -7.151811 -6.912512 15.509567 18.510178 -31.469424 -55.137112 -4.529906 -13.323277 0.000000 0.000000 0.000000 30.468764 15.575669 -0.669683 -79.257877 14.536265 -18.722609 124.493339 5.932480 -4.902063 26.604722 -16.757712 47.851769 -29.076621 9.793796 -12.210549 0.000000 0.000000 0.000000 33.887560 17.143432 -1.731709 27.082298 0.273737 -4.030554 11.423485 2.094435 -0.781899 -0.005762 -0.897943 0.353332 0.000000 0.000000 0.000000 14.632608 4.695626 -0.399643 -3.344441 14.049294 11.534933 -7.486561 -36.908491 -14.369121 0.000000 0.000000 0.000000 12.591454 2.403981 -1.756457 1.641117 -23.671694 5.329632 5.378526 0.024752 -0.953318 -47.843153 -29.810777 -61.161571 -6.673482 -69.989420 -5.702767 0.000000 0.000000 0.000000 12.927799 2.480784 0.480267 0.415082 4.276898 -4.651377 0.402166 5.055976 3.183397 -43.015056 39.519656 73.823328 -51.380706 55.129148 44.792019 0.000000 0.000000 0.000000 
4.545277 35.653137 -36.048611 0.000000 0.000000 0.000000 27.431138 20.539765 -1.372153 -52.104819 -41.927570 12.557857 114.593717 -6.868592 -6.976337 15.271401 18.868951 -31.217253 -54.544344 -4.528925 -13.387008 0.000000 0.000000 0.000000 29.727391 14.991879 -0.635173 -78.632198 14.595295 -17.856635 124.263503 5.515525 -4.309886 26.635322 -17.426063 47.853053 -27.993467 9.545521 -12.469637 0.000000 0.000000 0.000000 32.909972 16.803184 -1.711628 27.709685 -0.189755 -3.866140 10.294195 2.244584 -0.814280 -0.016111 -0.933232 0.324385 0.000000 0.000000 0.000000 13.459257 4.892959 -0.489083 -5.256815 13.900593 12.105340 -3.506330 -36.998363 -11.893304 0.000000 0.000000 0.000000 11.870192 2.520134 -1.698535 1.504246 -22.854351 4.934655 5.122325 0.648359 -1.851012 -45.500780 -27.195547 -61.774656 -4.254506 -70.681024 -3.866334 0.000000 0.000000 0.000000 11.919644 2.603695 0.434827 0.397302 2.962732 -5.062381 0.477134 6.038989 3.566943 -42.180608 41.614188 75.087473 -46.092497 53.874418 40.279436 0.000000 0.000000 0.000000 
4.518191 35.949661 -36.126057 0.000000 0.000000 0.000000 26.765199 19.926114 -1.324127 -50.451858 -41.358250 13.312236 114.291488 -6.464639 -7.106224 14.739820 19.530934 -30.833697 -53.436333 -4.499649 -13.561712 0.000000 0.000000 0.000000 29.100397 14.399545 -0.610506 -77.984655 14.637282 -17.187968 124.162293 5.132235 -3.831641 26.350288 -17.989144 47.850574 -26.793007 9.360399 -12.738232 0.000000 0.000000 0.000000 32.074100 16.742400 -1.761155 28.407896 -0.482346 -3.597175 8.919860 2.327733 -0.904783 -0.038917 -0.963978 0.284783 0.000000 0.000000 0.000000 11.943014 5.029533 -0.569501 -6.930470 13.699638 12.909781 -0.348102 -38.008968 -9.556888 0.000000 0.000000 0.000000 10.709601 2.585823 -1.654711 1.350143 -22.265418 4.573395 4.921499 1.155164 -2.600092 -42.939613 -24.629744 -62.410731 -2.282032 -72.053264 -2.182434 0.000000 0.000000 0.000000 10.531694 2.644231 0.360670 0.323252 1.483449 -5.386294 0.871958 6.933738 3.841274 -40.867040 43.600116 76.100479 -42.218093 53.636110 37.089495 0.000000 0.000000 0.000000 
